<?xml version="1.0" encoding="UTF-8" standalone="no"?>
<!DOCTYPE svg PUBLIC "-//W3C//DTD SVG 1.1//EN" "http://www.w3.org/Graphics/SVG/1.1/DTD/svg11.dtd">
<svg width="100%" height="100%" viewBox="0 0 100 100" version="1.1" xmlns="http://www.w3.org/2000/svg" xmlns:xlink="http://www.w3.org/1999/xlink" xml:space="preserve" xmlns:serif="http://www.serif.com/" style="fill-rule:evenodd;clip-rule:evenodd;stroke-linejoin:round;stroke-miterlimit:2;">
    <rect x="0" y="0" width="100" height="100" style="stroke:black;stroke-width:12px;"/>
    <g transform="matrix(0.083928,0,0,0.083928,7.031621,10.081109)">
        <path d="M341.716,690.361C279.471,598.082 372.091,501.582 466.663,547.147C496.556,561.55 508.922,581.602 511.375,582.77C513.133,583.608 523.085,568.29 541.236,556.1C634.91,493.19 739.046,584.849 689.82,677.672C657.546,738.531 604.668,740.353 530.397,834.421C515.703,853.031 513.095,864.197 509.98,859.192C450.442,763.525 375.469,741.8 341.716,690.361Z" style="fill:rgb(233,30,38);"/>
    </g>
    <g transform="matrix(0.083928,0,0,0.083928,7.052415,3.081109)">
        <path d="M460.348,180.312C520.565,136.223 587.372,181.237 593.162,230.545C599.378,283.477 563.048,300.77 563.187,305.525C563.421,313.528 584.393,284.476 631.576,295.197C670.36,304.01 692.742,340.706 693.168,367.507C694.557,454.789 582.023,483.54 536.931,408.24C531.148,398.582 529.285,405.839 529.243,406.468C524.82,472.256 573.597,498.689 575.77,503.363C580.32,513.146 562.03,510.855 560.499,510.85C452.19,510.518 450.663,512.669 448.334,508.615C442.663,498.741 465.053,499.363 485.151,459.332C495.821,438.078 497.635,403.074 491.493,403.142C486.796,403.194 476.007,442.696 424.533,450.754C400.439,454.526 372.243,444.659 357.742,431.234C306.86,384.129 333.737,317.43 380.674,298.938C424.958,281.492 456.926,306.597 458.6,307.071C459.012,307.188 464.116,306.736 458.312,301.724C454.498,298.43 430.144,277.397 429.93,245.494C429.686,209.246 446.411,192.39 460.348,180.312Z" style="fill:white;"/>
    </g>
</svg>
